<svg xmlns="http://www.w3.org/2000/svg" viewBox="0 0 64 64" xml:space="preserve"><path fill="#0A5078" d="M14 48H6a2 2 0 0 0-2 2v8a2 2 0 0 0 2 2h8a2 2 0 0 0 2-2v-8a2 2 0 0 0-2-2z"/><path fill="#00A0C8" d="M26 40h-8a2 2 0 0 0-2 2v16a2 2 0 0 0 2 2h8a2 2 0 0 0 2-2V42a2 2 0 0 0-2-2z"/><path fill="#00325A" d="M15 48.268V58c0 .507.189.97.5 1.322.311-.352.5-.815.5-1.322v-8c0-.74-.402-1.386-1-1.732z"/><path fill="#C80A50" d="M38 32h-8a2 2 0 0 0-2 2v24a2 2 0 0 0 2 2h8a2 2 0 0 0 2-2V34a2 2 0 0 0-2-2z"/><path fill="#0082AA" d="M27 40.268V58c0 .507.189.97.5 1.322.311-.352.5-.815.5-1.322V42c0-.74-.402-1.386-1-1.732z"/><path fill="#FAB400" d="M50 22h-8a2 2 0 0 0-2 2v34a2 2 0 0 0 2 2h8a2 2 0 0 0 2-2V24a2 2 0 0 0-2-2z"/><path fill="#DC9600" d="M50 22h-8a2 2 0 0 0-2 2v7.652c1.819.864 3.853 1.348 6 1.348s4.181-.484 6-1.348V24a2 2 0 0 0-2-2z"/><path fill="#A00028" d="M39 32.268V58c0 .507.189.97.5 1.322.311-.352.5-.815.5-1.322V34c0-.74-.402-1.386-1-1.732z"/><g><circle fill="#C80A50" cx="46" cy="18" r="14"/><path fill="#A00028" d="M46 20a1 1 0 1 0 0-2H32c0 .679.049 1.347.142 2H46z"/><path fill="#F0F0F0" d="M46 8c-5.523 0-10 4.477-10 10s4.477 10 10 10 10-4.477 10-10S51.523 8 46 8zm0 16a6 6 0 1 1 0-12 6 6 0 0 1 0 12z"/><circle fill="#F0F0F0" cx="46" cy="18" r="2"/><path fill="#D2D2D2" d="M47 19a1 1 0 0 0-1-1h-2a2 2 0 0 0 2 2l.052-.001A1 1 0 0 0 47 19zM40.342 20A5.996 5.996 0 0 1 40 18h-4c0 .685.069 1.354.2 2h4.142z"/><path fill="#0A5078" d="m29.707 16.293-4-4A.997.997 0 0 0 25 12h-8a1 1 0 0 0-.707 1.707l4 4A.997.997 0 0 0 21 18h8a1 1 0 0 0 .707-1.707z"/><path fill="#0A5078" d="m29.707 19.707-4 4A.997.997 0 0 1 25 24h-8a1 1 0 0 1-.707-1.707l4-4A.997.997 0 0 1 21 18h8a1 1 0 0 1 .707 1.707z"/><path fill="#00325A" d="m19.586 19-1 1h10.828l.293-.293A.997.997 0 0 0 30 19H19.586z"/><g><path fill="#FAB400" d="M46 19H18a1 1 0 1 1 0-2h28a1 1 0 1 1 0 2z"/></g></g></svg>